HIERARCHY
ROOT root
{
	OFFSET 0.000000 0.000000 0.000000
	CHANNELS 6 Xposition Yposition Zposition Zrotation Yrotation Xrotation
	JOINT lhip
	{
		OFFSET 0.058581 -0.082280 -0.017664
		CHANNELS 3 Zrotation Yrotation Xrotation
		JOINT lknee
		{
			OFFSET 0.043451 -0.386469 0.008037
			CHANNELS 3 Zrotation Yrotation Xrotation
			JOINT lankle
			{
				OFFSET -0.014790 -0.426874 -0.037428
				CHANNELS 3 Zrotation Yrotation Xrotation
				JOINT ltoe
				{
					OFFSET 0.041054 -0.060286 0.122042
					CHANNELS 3 Zrotation Yrotation Xrotation
					End Site
					{
						OFFSET 0.000000 0.000000 0.000000
					}
				}
			}
		}
	}
	JOINT rhip
	{
		OFFSET -0.060310 -0.090513 -0.013543
		CHANNELS 3 Zrotation Yrotation Xrotation
		JOINT rknee
		{
			OFFSET -0.043257 -0.383688 -0.004843
			CHANNELS 3 Zrotation Yrotation Xrotation
			JOINT rankle
			{
				OFFSET 0.019056 -0.420046 -0.034562
				CHANNELS 3 Zrotation Yrotation Xrotation
				JOINT rtoe
				{
					OFFSET -0.034840 -0.062106 0.130323
					CHANNELS 3 Zrotation Yrotation Xrotation
					End Site
					{
						OFFSET 0.000000 0.000000 0.000000
					}
				}
			}
		}
	}
	JOINT lowerback
	{
		OFFSET 0.004439 0.124404 -0.038385
		CHANNELS 3 Zrotation Yrotation Xrotation
		JOINT upperback
		{
			OFFSET 0.004488 0.137956 0.026820
			CHANNELS 3 Zrotation Yrotation Xrotation
			JOINT chest
			{
				OFFSET -0.002265 0.056032 0.002855
				CHANNELS 3 Zrotation Yrotation Xrotation
				JOINT lowerneck
				{
					OFFSET -0.013390 0.211636 -0.033468
					CHANNELS 3 Zrotation Yrotation Xrotation
					JOINT upperneck
					{
						OFFSET 0.010113 0.088937 0.050410
						CHANNELS 3 Zrotation Yrotation Xrotation
						End Site
						{
							OFFSET 0.000000 0.000000 0.000000
						}
					}
				}
				JOINT lclavicle
				{
					OFFSET 0.071702 0.114000 -0.018898
					CHANNELS 3 Zrotation Yrotation Xrotation
					JOINT lshoulder
					{
						OFFSET 0.122921 0.045205 -0.019046
						CHANNELS 3 Zrotation Yrotation Xrotation
						JOINT lelbow
						{
							OFFSET 0.255332 -0.015649 -0.022946
							CHANNELS 3 Zrotation Yrotation Xrotation
							JOINT lwrist
							{
								OFFSET 0.265709 0.012698 -0.007375
								CHANNELS 3 Zrotation Yrotation Xrotation
								End Site
								{
									OFFSET 0.000000 0.000000 0.000000
								}
							}
						}
					}
				}
				JOINT rclavicle
				{
					OFFSET -0.082954 0.112472 -0.023707
					CHANNELS 3 Zrotation Yrotation Xrotation
					JOINT rshoulder
					{
						OFFSET -0.113228 0.046853 -0.008472
						CHANNELS 3 Zrotation Yrotation Xrotation
						JOINT relbow
						{
							OFFSET -0.260127 -0.014369 -0.031269
							CHANNELS 3 Zrotation Yrotation Xrotation
							JOINT rwrist
							{
								OFFSET -0.269108 0.006794 -0.006027
								CHANNELS 3 Zrotation Yrotation Xrotation
								End Site
								{
									OFFSET 0.000000 0.000000 0.000000
								}
							}
						}
					}
				}
			}
		}
	}
}
MOTION
Frames: 8
Frame Time: 0.033333
0.031330 0.246231 0.988593 96.086214 0.390151 77.266422 4.528829 0.266329 -1.619810 -11.024607 -12.233714 29.808555 1.493162 14.347661 -16.067516 0.000000 -0.000000 0.000000 -6.448827 -5.461960 0.963997 2.067850 -0.677793 28.169577 4.111584 -9.833404 -14.809086 0.000000 -0.000000 0.000000 -1.673257 5.971635 13.486386 14.234212 -4.824340 19.816059 9.071803 4.119680 0.660970 3.071582 1.266918 18.278712 12.301559 -19.022719 -30.103480 14.753335 -5.179187 -1.422514 8.770283 -17.440678 -27.817223 80.633099 -62.056667 -116.767531 2.719664 -27.474746 -48.949058 9.750476 26.982395 9.764727 28.538603 8.683414 9.825921 17.130075 51.496054 40.580241 6.128710 12.789485 4.331387 
0.034884 0.245100 0.994162 95.926264 0.264596 78.824406 4.266792 0.029823 -1.575781 -9.758454 -12.224522 26.751806 1.222949 14.215315 -14.625908 0.000000 -0.000000 0.000000 -6.191617 -5.578848 0.926971 1.848666 -0.355473 25.144721 4.344411 -9.822580 -13.480417 0.000000 -0.000000 0.000000 -2.013179 5.722041 11.625256 13.278647 -4.918852 17.704435 8.525711 3.554332 1.709334 2.236387 0.296084 17.086300 12.354427 -18.003713 -28.648434 14.099198 -5.315619 -1.606279 7.456610 -17.364443 -25.312742 85.551951 -63.435000 -120.827302 1.516277 -25.945855 -48.691994 8.976840 25.844323 8.731213 27.661312 7.884406 10.514569 27.412684 56.963338 49.585650 8.929274 11.876879 2.600424 
0.039319 0.244595 0.999099 95.896460 0.016201 80.775713 3.893270 -0.162937 -1.631147 -8.417723 -12.385012 23.047818 0.912259 14.106346 -12.801645 0.000000 -0.000000 0.000000 -5.982050 -5.570638 0.843299 1.535648 -0.010581 21.440608 4.792470 -10.317027 -11.646848 0.000000 -0.000000 0.000000 -2.372889 5.277144 9.509891 12.084067 -5.070288 14.919740 7.821928 2.872906 2.912195 1.109401 -0.556762 15.979357 12.265332 -16.041329 -26.872834 13.031769 -5.392553 -1.437440 6.200961 -16.465195 -22.275333 94.129394 -65.148872 -127.959319 1.070979 -22.939864 -48.051425 8.373263 24.346685 7.865532 26.344094 7.255685 10.733449 42.336953 61.603527 62.283036 10.534601 10.816900 0.487078 
0.044197 0.243657 1.003558 95.875080 -0.293902 82.792023 3.464621 -0.469705 -1.599061 -6.965603 -12.188627 19.124839 0.665651 13.954507 -11.056856 0.000000 -0.000000 0.000000 -5.745051 -5.576658 0.821282 1.012112 0.306554 17.618767 5.151293 -10.772310 -9.734531 0.000000 -0.000000 0.000000 -2.766751 4.834683 7.433591 10.897287 -5.267211 12.263393 6.843519 2.247567 3.638383 0.517598 -1.905289 14.360500 12.224796 -14.569395 -23.874454 11.893816 -4.175882 -2.087762 5.079978 -16.621833 -18.611915 104.010633 -67.403006 -135.234143 -0.235289 -19.490345 -45.931672 7.773573 21.800896 6.190123 24.800080 7.286110 11.782375 61.729697 64.595012 78.491036 12.932379 10.018146 -3.228471 
0.049889 0.242639 1.007214 95.785256 -0.499240 84.815272 3.170934 -0.628112 -1.539276 -5.483285 -11.672321 15.285930 0.374479 13.373286 -9.518111 0.000000 -0.000000 0.000000 -5.340568 -5.641599 0.976231 0.375220 0.611997 13.565934 5.318501 -11.115346 -7.972166 0.000000 -0.000000 0.000000 -2.935496 4.345494 5.497655 9.808526 -5.525572 9.458176 5.840445 1.400279 3.856087 -0.218054 -2.868834 12.692579 11.627635 -13.124111 -20.305570 10.380045 -2.648810 -2.405209 4.029243 -15.689770 -14.310896 118.145421 -68.702549 -146.228477 -1.928696 -18.524248 -43.496087 7.162204 18.801231 3.937448 23.151863 7.429725 13.035053 83.575315 65.466712 96.790325 15.578749 10.783043 -8.417843 
0.056809 0.242546 1.009163 95.763034 -0.625624 87.251758 2.960886 -0.371670 -2.102893 -3.789318 -10.233420 11.678682 0.313840 10.915291 -7.258747 0.000000 -0.000000 0.000000 -5.004071 -5.383047 0.657757 0.049292 0.417870 9.675563 5.045933 -11.776573 -5.919471 0.000000 -0.000000 0.000000 -2.713022 4.194487 2.361017 8.291069 -5.994828 8.295886 5.386411 0.542312 2.766227 -3.125173 -3.688793 11.951896 13.099013 -11.480601 -16.882002 6.716335 -4.510003 -5.254665 4.119800 -10.760476 -5.346707 132.289731 -66.114991 -155.806139 -3.725828 -17.399340 -44.927238 7.186064 16.427339 -0.311145 20.277194 5.126522 14.425577 106.570661 63.293880 113.510466 18.029709 12.302987 -14.469694 
0.063160 0.241583 1.009730 95.111208 -0.866578 88.613954 2.759497 -0.255751 -1.355440 -2.761131 -8.908840 8.166504 0.147485 9.966212 -6.282606 0.000000 -0.000000 0.000000 -5.095894 -5.171029 0.936145 -0.188313 0.077806 6.807272 5.113258 -11.095845 -4.816751 0.000000 -0.000000 0.000000 -2.666773 3.666084 1.011814 7.280471 -5.948146 6.240970 4.519586 0.037429 2.155458 -3.443898 -4.129056 10.689872 11.508112 -10.604294 -13.381422 4.525606 -1.576107 -5.948365 1.241710 -9.866786 0.301152 142.330866 -63.031962 -164.706865 -6.229851 -20.854860 -46.477934 6.822568 12.590560 -3.054602 19.008132 4.732358 15.645451 126.363953 62.748172 127.602402 22.444695 15.284927 -21.475478 
0.069545 0.240745 1.008755 94.485226 -0.987629 89.579020 2.704338 -0.172380 -0.560664 -2.084346 -7.569765 5.537460 -0.122387 9.061804 -5.879707 0.000000 -0.000000 0.000000 -5.070990 -4.754562 1.362259 -0.404322 -0.331892 4.588804 4.863597 -10.187188 -4.328348 0.000000 -0.000000 0.000000 -2.247340 3.039882 -0.167844 6.321240 -5.787082 4.771630 3.612203 0.012954 1.188688 -3.840792 -4.965460 10.135670 9.911004 -9.675664 -10.289891 1.553597 1.745004 -6.062566 -4.268218 -9.460033 5.636633 146.742108 -58.749112 -168.488934 -7.629951 -23.363575 -48.262722 6.521500 8.301356 -5.142408 19.396278 4.045312 16.409659 144.614486 62.835015 140.140431 24.459703 18.633579 -29.789056 
